<svg xmlns="http://www.w3.org/2000/svg" viewBox="0 0 120 100"><rect width="120" height="100" fill="#242424"/><path d="M12 86H108M12 33.55083508455798H108M12 10V90" fill="none" stroke="#646464"/><path d="M12.00 86.00 L12.75 82.57 L13.50 78.12 L14.25 72.87 L15.00 67.06 L15.75 60.90 L16.50 54.61 L17.25 48.37 L18.00 42.35 L18.75 36.71 L19.50 31.55 L20.25 26.99 L21.00 23.07 L21.75 19.85 L22.50 17.35 L23.25 15.56 L24.00 14.45 L24.75 14.00 L25.50 14.14 L26.25 14.82 L27.00 15.95 L27.75 17.45 L28.50 19.26 L29.25 21.28 L30.00 23.44 L30.75 25.66 L31.50 27.88 L32.25 30.02 L33.00 32.05 L33.75 33.91 L34.50 35.57 L35.25 37.00 L36.00 38.19 L36.75 39.12 L37.50 39.81 L38.25 40.24 L39.00 40.45 L39.75 40.44 L40.50 40.24 L41.25 39.87 L42.00 39.36 L42.75 38.74 L43.50 38.04 L44.25 37.28 L45.00 36.50 L45.75 35.71 L46.50 34.95 L47.25 34.22 L48.00 33.55 L48.75 32.95 L49.50 32.43 L50.25 31.99 L51.00 31.64 L51.75 31.38 L52.50 31.21 L53.25 31.12 L54.00 31.11 L54.75 31.17 L55.50 31.29 L56.25 31.46 L57.00 31.67 L57.75 31.91 L58.50 32.18 L59.25 32.45 L60.00 32.73 L60.75 33.00 L61.50 33.26 L62.25 33.51 L63.00 33.72 L63.75 33.91 L64.50 34.07 L65.25 34.20 L66.00 34.30 L66.75 34.37 L67.50 34.41 L68.25 34.42 L69.00 34.40 L69.75 34.36 L70.50 34.30 L71.25 34.23 L72.00 34.15 L72.75 34.06 L73.50 33.96 L74.25 33.86 L75.00 33.76 L75.75 33.67 L76.50 33.58 L77.25 33.50 L78.00 33.44 L78.75 33.38 L79.50 33.33 L80.25 33.29 L81.00 33.27 L81.75 33.25 L82.50 33.25 L83.25 33.25 L84.00 33.26 L84.75 33.28 L85.50 33.30 L86.25 33.33 L87.00 33.37 L87.75 33.40 L88.50 33.43 L89.25 33.47 L90.00 33.50 L90.75 33.53 L91.50 33.56 L92.25 33.59 L93.00 33.61 L93.75 33.63 L94.50 33.64 L95.25 33.65 L96.00 33.66 L96.75 33.66 L97.50 33.66 L98.25 33.65 L99.00 33.65 L99.75 33.64 L100.50 33.63 L101.25 33.62 L102.00 33.61 L102.75 33.59 L103.50 33.58 L104.25 33.57 L105.00 33.56 L105.75 33.55 L106.50 33.54 L107.25 33.53 L108.00 33.55" fill="none" stroke="#ffdb79" stroke-width="2.5"/></svg>