<svg xmlns="http://www.w3.org/2000/svg" viewBox="0 0 120 100"><rect width="120" height="100" fill="#242424"/><path d="M12 86H108M12 14H108M12 10V90" fill="none" stroke="#646464"/><path d="M12.00 86.00 L12.75 86.00 L13.50 85.98 L14.25 85.96 L15.00 85.93 L15.75 85.89 L16.50 85.84 L17.25 85.78 L18.00 85.72 L18.75 85.64 L19.50 85.56 L20.25 85.47 L21.00 85.37 L21.75 85.26 L22.50 85.14 L23.25 85.01 L24.00 84.88 L24.75 84.73 L25.50 84.58 L26.25 84.41 L27.00 84.24 L27.75 84.06 L28.50 83.87 L29.25 83.68 L30.00 83.47 L30.75 83.25 L31.50 83.03 L32.25 82.80 L33.00 82.55 L33.75 82.30 L34.50 82.04 L35.25 81.78 L36.00 81.50 L36.75 81.21 L37.50 80.92 L38.25 80.62 L39.00 80.30 L39.75 79.98 L40.50 79.65 L41.25 79.32 L42.00 78.97 L42.75 78.61 L43.50 78.25 L44.25 77.87 L45.00 77.49 L45.75 77.10 L46.50 76.70 L47.25 76.29 L48.00 75.88 L48.75 75.45 L49.50 75.01 L50.25 74.57 L51.00 74.12 L51.75 73.66 L52.50 73.19 L53.25 72.71 L54.00 72.22 L54.75 71.72 L55.50 71.22 L56.25 70.70 L57.00 70.18 L57.75 69.65 L58.50 69.11 L59.25 68.56 L60.00 68.00 L60.75 67.43 L61.50 66.86 L62.25 66.27 L63.00 65.68 L63.75 65.08 L64.50 64.47 L65.25 63.85 L66.00 63.22 L66.75 62.58 L67.50 61.94 L68.25 61.28 L69.00 60.62 L69.75 59.94 L70.50 59.26 L71.25 58.57 L72.00 57.88 L72.75 57.17 L73.50 56.45 L74.25 55.73 L75.00 54.99 L75.75 54.25 L76.50 53.50 L77.25 52.74 L78.00 51.97 L78.75 51.19 L79.50 50.40 L80.25 49.61 L81.00 48.80 L81.75 47.99 L82.50 47.17 L83.25 46.34 L84.00 45.50 L84.75 44.65 L85.50 43.79 L86.25 42.93 L87.00 42.05 L87.75 41.17 L88.50 40.28 L89.25 39.38 L90.00 38.47 L90.75 37.55 L91.50 36.62 L92.25 35.69 L93.00 34.74 L93.75 33.79 L94.50 32.83 L95.25 31.85 L96.00 30.88 L96.75 29.89 L97.50 28.89 L98.25 27.88 L99.00 26.87 L99.75 25.84 L100.50 24.81 L101.25 23.77 L102.00 22.72 L102.75 21.66 L103.50 20.59 L104.25 19.52 L105.00 18.43 L105.75 17.34 L106.50 16.23 L107.25 15.12 L108.00 14.00" fill="none" stroke="#ffdb79" stroke-width="2.5"/></svg>